<svg width="112" height="112" viewBox="0 0 112 112" fill="none" xmlns="http://www.w3.org/2000/svg">
<path fill-rule="evenodd" clip-rule="evenodd" d="M112 56C112 86.8352 87.0032 111.832 56.168 111.832C25.3328 111.832 0.335938 86.8352 0.335938 56C0.335938 25.1648 25.3328 0.167938 56.168 0.167938C87.0032 0.167938 112 25.1648 112 56ZM18.2443 39.8154C18.2443 34.7991 22.4007 30.7176 27.5089 30.7176H84.8271C89.9363 30.7176 94.0927 34.7991 94.0917 39.8164V72.1846C94.0917 77.2009 89.9353 81.2824 84.8271 81.2824H27.5089C22.4007 81.2824 18.2443 77.2009 18.2443 72.1846V39.8154ZM56.168 51.9205L80.3 36.6529H32.0359L56.168 51.9205ZM24.2884 72.1856C24.2884 73.9286 25.733 75.3481 27.5089 75.3481H84.8271C86.603 75.3481 88.0486 73.9286 88.0496 72.1846V39.9846L58.0346 58.938C58.0114 58.9522 57.9872 58.9638 57.963 58.9755C57.9451 58.984 57.9272 58.9926 57.9097 59.0023C57.8664 59.026 57.8221 59.0488 57.7777 59.0705C57.544 59.1882 57.3053 59.2832 57.0605 59.3455C57.0353 59.3525 57.0101 59.3554 56.985 59.3614C56.716 59.4247 56.444 59.4623 56.172 59.4623H56.168H56.166C55.894 59.4623 55.622 59.4237 55.3531 59.3614C55.3423 59.3588 55.3315 59.3568 55.3207 59.3548C55.3063 59.3522 55.2919 59.3495 55.2775 59.3455C55.0327 59.2832 54.793 59.1882 54.5603 59.0705C54.5159 59.0488 54.4716 59.026 54.4283 59.0023C54.4108 58.9926 54.3929 58.984 54.375 58.9755C54.3508 58.9638 54.3266 58.9522 54.3034 58.938L24.2884 39.9846V72.1856Z" fill="#E9AFA3"/>
</svg>
