<?xml version="1.0" encoding="utf-8"?>
<!-- Generator: Adobe Illustrator 26.0.0, SVG Export Plug-In . SVG Version: 6.00 Build 0)  -->
<svg version="1.1" id="Camada_1" xmlns="http://www.w3.org/2000/svg" xmlns:xlink="http://www.w3.org/1999/xlink" x="0px" y="0px"
	 viewBox="0 0 897.1 1068.5" style="enable-background:new 0 0 897.1 1068.5;" xml:space="preserve">
<style type="text/css">
	.st0{fill:#F9DEC9;}
	.st1{clip-path:url(#SVGID_00000060752129084242435000000016007794970547904683_);}
</style>
<path class="st0" d="M81.5,854.1C133.9,990.6,230,1003,427.4,1045c148.4,31.6,214.9,45.7,326.5-53.9c92.6-82.7,74.5-203.3,101-322.4
	c32.7-147-65.3-72.2-143.1-202.5C629.3,328,612.5,277.9,449.7,250.5c-154-25.9-259.5,39.9-218.2,185.5
	c12.1,42.7,8.6,138.2-111.7,185.5S29.1,717.7,81.5,854.1z"/>
<g>
	<defs>
		<path id="SVGID_1_" d="M81.5,854.1C133.9,990.6,230,1003,427.4,1045c148.4,31.6,214.9,45.7,326.5-53.9
			c92.6-82.7,74.5-203.3,101-322.4c32.7-147-23.2-155.2-101-285.5C671.4,245,694.8,143.8,532,116.4
			C378,90.4,121.4,237.6,162.7,383.2c12.1,42.7,77.3,190.9-43,238.2S29.1,717.7,81.5,854.1z"/>
	</defs>
	<clipPath id="SVGID_00000080911851230125978170000004422088033647653558_">
		<use xlink:href="#SVGID_1_"  style="overflow:visible;"/>
	</clipPath>
	<g style="clip-path:url(#SVGID_00000080911851230125978170000004422088033647653558_);">
		
			<image style="overflow:visible;enable-background:new    ;" width="1638" height="1951" xlink:href="../c_site_HTML_Component/assets/a6337c3e15e3f8ba2e0e6b34611744d1.png"  transform="matrix(0.55 0 0 0.55 0 -1.464844e-05)">
		</image>
	</g>
</g>
</svg>
