<svg width="112" height="112" viewBox="0 0 112 112" fill="none" xmlns="http://www.w3.org/2000/svg">
<path fill-rule="evenodd" clip-rule="evenodd" d="M111.664 56C111.664 86.8352 86.6673 111.832 55.8321 111.832C24.9969 111.832 0 86.8352 0 56C0 25.1648 24.9969 0.167938 55.8321 0.167938C86.6673 0.167938 111.664 25.1648 111.664 56ZM77.4814 88.5687H91.5025V59.7655C91.5025 47.5786 84.5941 41.686 74.9447 41.686C65.2908 41.686 61.228 49.2038 61.228 49.2038V43.0759H47.7156V88.5687H61.228V64.6878C61.228 58.289 64.1735 54.4813 69.8112 54.4813C74.9936 54.4813 77.4814 58.1403 77.4814 64.6878V88.5687ZM23.2633 28.7243C23.2633 33.3601 26.9929 37.119 31.5955 37.119C36.1981 37.119 39.9255 33.3601 39.9255 28.7243C39.9255 24.0884 36.1981 20.3295 31.5955 20.3295C26.9929 20.3295 23.2633 24.0884 23.2633 28.7243ZM38.7082 88.5687H24.6183V43.0759H38.7082V88.5687Z" fill="#E9AFA3"/>
</svg>
